<?xml version="1.0" encoding="UTF-8" standalone="no"?>
<!-- Created with Inkscape (http://www.inkscape.org/) -->

<svg
   xmlns:dc="http://purl.org/dc/elements/1.1/"
   xmlns:cc="http://creativecommons.org/ns#"
   xmlns:rdf="http://www.w3.org/1999/02/22-rdf-syntax-ns#"
   xmlns:svg="http://www.w3.org/2000/svg"
   xmlns="http://www.w3.org/2000/svg"
   xmlns:sodipodi="http://sodipodi.sourceforge.net/DTD/sodipodi-0.dtd"
   xmlns:inkscape="http://www.inkscape.org/namespaces/inkscape"
   version="1.1"
   id="svg2"
   width="279.27274"
   height="273.16364"
   viewBox="0 0 279.27274 273.16364"
   sodipodi:docname="LogoOPLB.svg"
   inkscape:version="0.92.4 (5da689c313, 2019-01-14)">
  <metadata
     id="metadata8">
    <rdf:RDF>
      <cc:Work
         rdf:about="">
        <dc:format>image/svg+xml</dc:format>
        <dc:type
           rdf:resource="http://purl.org/dc/dcmitype/StillImage" />
        <dc:title></dc:title>
      </cc:Work>
    </rdf:RDF>
  </metadata>
  <defs
     id="defs6" />
  <sodipodi:namedview
     pagecolor="#ffffff"
     bordercolor="#666666"
     borderopacity="1"
     objecttolerance="10"
     gridtolerance="10"
     guidetolerance="10"
     inkscape:pageopacity="0"
     inkscape:pageshadow="2"
     inkscape:window-width="1920"
     inkscape:window-height="1017"
     id="namedview4"
     showgrid="false"
     inkscape:zoom="2.4436225"
     inkscape:cx="139.88618"
     inkscape:cy="171.69079"
     inkscape:window-x="-8"
     inkscape:window-y="-8"
     inkscape:window-maximized="1"
     inkscape:current-layer="svg2" />
  <path
     style="fill:#ffffff;stroke-width:0.43636364"
     d="m 189.37168,264.32728 c -0.10528,-0.3 0.0778,-1.42909 0.40674,-2.50909 1.72309,-5.65651 1.03019,-11.97796 -1.9317,-17.6233 -2.87394,-5.47773 -17.3415,-19.57799 -36.63217,-35.70219 -11.89159,-9.93962 -20.48343,-18.06733 -32.70511,-30.93835 -10.66058,-11.22699 -15.66834,-16.82697 -21.88315,-24.47111 -2.08476,-2.56422 -3.91426,-4.67513 -4.06556,-4.69091 -0.67783,-0.0707 -17.97641,13.53137 -36.81582,28.94869 -13.75589,11.25721 -21.0866,19.00941 -24.1779,25.56807 -1.02775,2.18054 -1.13119,2.89546 -1.13119,7.81815 0,3.58999 -0.16383,5.47276 -0.48554,5.58002 -0.76821,0.25614 -4.76915,-3.1344 -6.66737,-5.65016 -3.72806,-4.94092 -5.83087,-10.85612 -5.85685,-16.47528 -0.0364,-7.87991 2.88554,-11.58358 25.84265,-32.75622 14.01292,-12.92368 17.47655,-15.80955 27.96711,-23.30195 10.45956,-7.47025 19.17207,-14.01115 23.767,-17.84301 1.91184,-1.59435 3.71589,-2.89882 4.00898,-2.89882 0.54906,0 5.62234,6.04552 15.92914,18.98182 16.99925,21.33613 28.79551,33.23579 63.85852,64.41831 23.68765,21.06609 32.29978,31.04586 33.82012,39.19089 0.52695,2.82305 -0.21366,6.33095 -2.04831,9.70179 -2.4208,4.44782 -9.38187,10.13041 -16.70495,13.63692 -3.54261,1.69631 -4.2034,1.84563 -4.49464,1.01573 z m 34.84469,-28.63414 c -0.16399,-0.26535 0.0374,-2.04417 0.4476,-3.95293 1.29776,-6.0392 -0.12272,-10.90781 -5.4532,-18.69053 -5.66329,-8.26862 -16.43302,-19.09885 -43.02949,-43.27119 -43.32352,-39.37481 -56.42848,-53.46104 -72.69037,-78.133206 l -0.69037,-1.047408 -21.56418,15.702534 c -11.86029,8.6364 -24.70599,17.84321 -28.54599,20.45958 -16.45979,11.2148 -20.1962,14.09277 -26.84167,20.67474 -6.9452,6.87883 -9.00423,9.67435 -11.12978,15.11073 -0.81922,2.09527 -1.61387,3.49091 -1.98764,3.49091 -0.3425,0 -1.05107,-0.89571 -1.5746,-1.99046 -2.6524498,-5.54657 -3.0801598,-16.4186 -0.88957,-22.61209 1.59233,-4.50203 3.66616,-7.45621 8.69888,-12.39159 8.16623,-8.00829 12.43502,-11.26162 31.32438,-23.87297 5.88,-3.92574 11.01088,-7.407462 11.40196,-7.737161 0.65233,-0.549954 0.61026,-0.913065 -0.50951,-4.397594 -0.6713,-2.088978 -1.66395,-5.95814 -2.20588,-8.59814 -0.54193,-2.64 -1.03886,-4.871664 -1.1043,-4.959256 -0.19596,-0.262324 -10.85638,5.462073 -15.57848,8.365288 -2.56616,1.577707 -5.79238,4.065578 -7.74928,5.975786 -2.78781,2.721282 -3.67379,3.952132 -5.25817,7.304887 -1.04799,2.21768 -2.15575,4.03404 -2.46169,4.03636 -0.73763,0.006 -1.39769,-1.76725 -1.94804,-5.232156 -1.48296,-9.336402 5.60262,-21.510834 16.89075,-29.021704 1.99885,-1.329988 8.93712,-5.148301 15.41836,-8.485134 11.37335,-5.855512 16.22803,-8.493094 28.12818,-15.282219 4.50898,-2.572407 5.61414,-3.395188 5.80452,-4.321425 0.35909,-1.746987 4.10476,-12.132661 5.51535,-15.292486 2.62291,-5.875488 6.68298,-10.225228 13.21986,-14.163051 2.7265,-1.642441 4.14546,-1.9859 4.14546,-1.003406 0,0.316816 -1.05659,2.18202 -2.34798,4.144897 -1.29139,1.962877 -3.05891,5.223753 -3.92783,7.246392 -1.57136,3.657774 -3.49603,10.686898 -3.2401,11.833235 0.1735,0.777099 11.4964,-6.553083 13.14025,-8.50669 0.64676,-0.76862 1.28725,-1.922357 1.42333,-2.56386 0.78582,-3.704447 2.55186,-8.535257 3.7863,-10.356997 1.50491,-2.220891 5.10511,-4.9911895 6.4864,-4.9911895 0.9996,0 1.05948,0.9713875 0.20854,3.3832005 -0.3391,0.961109 -0.757,2.871632 -0.92866,4.245607 -0.30197,2.41686 -0.28329,2.482707 0.574,2.023896 0.93794,-0.501973 3.11512,-3.098202 3.97796,-4.743613 0.28317,-0.54 0.89694,-0.981818 1.36392,-0.981818 1.07982,0 1.4691,1.470632 1.2115,4.576885 -0.20055,2.418353 -0.28273,2.561266 -3.99958,6.955274 -2.29571,2.713953 -2.50974,4.797635 -0.84189,8.196067 1.10133,2.244083 5.70109,8.600496 6.24111,8.624596 0.37868,0.0169 5.37035,-7.251027 7.4429,-10.836934 4.48555,-7.760854 4.6744,-13.21549 0.66199,-19.120283 -2.21754,-3.2634013 -1.13392,-4.0696866 2.59494,-1.9308052 2.87554,1.6494202 5.68614,4.7480732 7.09522,7.8224092 0.9214,2.010325 1.13508,3.133472 1.13529,5.967337 4.3e-4,6.544823 -2.38761,12.573447 -8.61231,21.741557 l -3.79948,5.596097 1.71458,2.040266 c 5.25218,6.249814 18.8844,18.552638 51.76688,46.718615 49.40624,42.31966 57.8287,50.04504 64.04009,58.73983 10.99279,15.38786 9.15952,34.23444 -4.18036,42.97539 -1.48285,0.97163 -2.98802,1.71202 -3.34482,1.6453 -0.53794,-0.10059 -0.65466,-1.23828 -0.68346,-6.66191 -0.0401,-7.56302 -0.39527,-8.92383 -4.43252,-16.98552 -4.59689,-9.17921 -10.95321,-17.26337 -23.00949,-29.26417 -9.27121,-9.22854 -14.69499,-13.93879 -40.60763,-35.26551 -12,-9.87628 -22.74262,-18.813694 -23.8725,-19.86091 -1.12988,-1.047216 -2.24765,-1.835817 -2.48392,-1.752441 -0.65134,0.229837 -14.00722,13.509451 -14.00722,13.927231 0,0.65748 14.38006,13.84382 27.03593,24.79163 26.61349,23.02168 30.22482,26.27589 39.73464,35.80543 10.28849,10.30983 17.08945,18.15733 22.83381,26.3475 8.60077,12.26278 10.58905,21.57716 6.4908,30.40707 -1.41373,3.04596 -6.8868,8.6162 -10.02514,10.20312 -2.60545,1.31746 -5.9393,1.94223 -6.39858,1.19911 z M 140.33326,88.541478 c 4.47641,-4.342185 8.13893,-8.086499 8.13893,-8.320696 0,-0.234192 -2.12538,-3.014221 -4.72306,-6.17784 -2.59768,-3.163619 -5.94469,-7.372032 -7.43779,-9.352032 -1.49311,-1.98 -2.92094,-3.6 -3.17296,-3.6 -0.61488,0 -16.9571,14.402435 -16.9571,14.944329 0,0.679444 5.45902,8.391233 9.80815,13.855671 4.26512,5.358891 5.3285,6.545455 5.86591,6.545455 0.18645,0 4.00152,-3.552698 8.47792,-7.894887 z M 88.92637,82.581819 c 5.13943,-3.54 9.44065,-6.681325 9.55828,-6.980727 0.11762,-0.299398 -0.65009,-2.753943 -1.70601,-5.454546 C 95.72271,67.445949 94.34746,63.47185 93.72251,61.315218 93.09757,59.158587 92.4118,57.219614 92.19857,57.006389 91.8651,56.67292 76.48233,66.059194 74.18128,68.000205 c -1.05355,0.888693 -0.9648,2.340257 0.51946,8.496275 1.74655,7.243841 3.60385,12.521703 4.40644,12.521703 0.26113,0 4.67977,-2.896364 9.81919,-6.436364 z M 119.4814,60.109092 c 4.39249,-3.66 8.09574,-6.910713 8.22946,-7.223808 0.13372,-0.313096 -0.82358,-2.571278 -2.12733,-5.018182 -1.30374,-2.446905 -2.96122,-6.216192 -3.68329,-8.376192 -0.72206,-2.16 -1.56786,-3.969092 -1.87954,-4.020204 -0.31168,-0.05111 -4.00306,2.420061 -8.20306,5.491494 -7.15495,5.232368 -7.64462,5.680609 -7.7674,7.11011 -0.28523,3.320994 5.66624,18.691327 7.23738,18.691327 0.11409,0 3.80129,-2.994545 8.19378,-6.654545 z"
     id="path817"
     inkscape:connector-curvature="0" />
</svg>
